<svg viewBox="0 0 400 480" xmlns="http://www.w3.org/2000/svg" font-family="-apple-system, BlinkMacSystemFont, 'SF Pro Text', 'Helvetica Neue', Arial, sans-serif">
  <defs>
    <linearGradient id="metal-grad" x1="0%" y1="0%" x2="100%" y2="100%">
      <stop offset="0%"   stop-color="#4a4a4a"/>
      <stop offset="45%"  stop-color="#181818"/>
      <stop offset="100%" stop-color="#060606"/>
    </linearGradient>

    <radialGradient id="gap-glow" cx="275" cy="225" r="100" gradientUnits="userSpaceOnUse">
      <stop offset="0%"   stop-color="rgba(220,238,255,0.60)"/>
      <stop offset="50%"  stop-color="rgba(60,130,255,0.15)"/>
      <stop offset="100%" stop-color="rgba(40,100,255,0)"/>
    </radialGradient>

    <filter id="f-shadow" x="-20%" y="-20%" width="150%" height="150%">
      <feDropShadow dx="0" dy="2" stdDeviation="3" flood-color="#000000" flood-opacity="0.8"/>
    </filter>

    <clipPath id="c-outer">
      <rect x="60" y="40" width="280" height="280" rx="30"/>
    </clipPath>
    
    <symbol id="puzzle-piece" viewBox="0 0 70 70">
      <path d="M0,0 L25,0 C25,0 25,10 35,10 C45,10 45,0 45,0 L70,0 L70,25 C70,25 60,25 60,35 C60,45 70,45 70,45 L70,70 L45,70 C45,70 45,60 35,60 C25,60 25,70 25,70 L0,70 L0,45 C0,45 10,45 10,35 C10,25 0,25 0,25 Z" />
    </symbol>
  </defs>

  <rect x="60" y="40" width="280" height="280" rx="30" fill="#0a0a0a"/>

  <circle cx="275" cy="225" r="60" fill="url(#gap-glow)" filter="blur(15px)"/>

  <g clip-path="url(#c-outer)">
    <use href="#puzzle-piece" x="60"  y="40"  width="70" height="70" fill="url(#metal-grad)" filter="url(#f-shadow)"/>
    <use href="#puzzle-piece" x="130" y="40"  width="70" height="70" fill="url(#metal-grad)" filter="url(#f-shadow)"/>
    <use href="#puzzle-piece" x="200" y="40"  width="70" height="70" fill="url(#metal-grad)" filter="url(#f-shadow)"/>
    <use href="#puzzle-piece" x="270" y="40"  width="70" height="70" fill="url(#metal-grad)" filter="url(#f-shadow)"/>

    <use href="#puzzle-piece" x="60"  y="110" width="70" height="70" fill="url(#metal-grad)" filter="url(#f-shadow)"/>
    <use href="#puzzle-piece" x="130" y="110" width="70" height="70" fill="url(#metal-grad)" filter="url(#f-shadow)"/>
    <use href="#puzzle-piece" x="200" y="110" width="70" height="70" fill="url(#metal-grad)" filter="url(#f-shadow)"/>
    <use href="#puzzle-piece" x="270" y="110" width="70" height="70" fill="url(#metal-grad)" filter="url(#f-shadow)"/>

    <use href="#puzzle-piece" x="60"  y="180" width="70" height="70" fill="url(#metal-grad)" filter="url(#f-shadow)"/>
    <use href="#puzzle-piece" x="130" y="180" width="70" height="70" fill="url(#metal-grad)" filter="url(#f-shadow)"/>
    <use href="#puzzle-piece" x="200" y="180" width="70" height="70" fill="url(#metal-grad)" filter="url(#f-shadow)"/>
    <path d="M270,180 L295,180 C295,180 295,190 305,190 C315,190 315,180 315,180 L340,180 L340,205 C340,205 330,205 330,215 C330,225 340,225 340,225 L340,250 L315,250 C315,250 315,240 305,240 C295,240 295,250 295,250 L270,250 L270,225 C270,225 280,225 280,215 C280,205 270,205 270,205 Z" 
          fill="none" stroke="rgba(150,205,255,0.4)" stroke-width="1" stroke-dasharray="4 3" />

    <use href="#puzzle-piece" x="60"  y="250" width="70" height="70" fill="url(#metal-grad)" filter="url(#f-shadow)"/>
    <use href="#puzzle-piece" x="130" y="250" width="70" height="70" fill="url(#metal-grad)" filter="url(#f-shadow)"/>
    <use href="#puzzle-piece" x="200" y="250" width="70" height="70" fill="url(#metal-grad)" filter="url(#f-shadow)"/>
    <use href="#puzzle-piece" x="270" y="250" width="70" height="70" fill="url(#metal-grad)" filter="url(#f-shadow)"/>
  </g>

  <rect x="60" y="40" width="280" height="280" rx="30" fill="none" stroke="rgba(255,255,255,0.1)" stroke-width="1"/>

  <text x="200" y="380" text-anchor="middle" font-size="28" font-weight="200" letter-spacing="4" fill="#333">ALMOST DONE</text>
</svg>
